<?xml version="1.0" encoding="utf-8"?>
<!-- Generator: Adobe Illustrator 21.0.0, SVG Export Plug-In . SVG Version: 6.00 Build 0)  -->
<svg xmlns="http://www.w3.org/2000/svg" xmlns:xlink="http://www.w3.org/1999/xlink" version="1.1" x="0px" y="0px" viewBox="0 0 100 100" style="enable-background:new 0 0 100 100;" xml:space="preserve" width="200px" height="200px">

<g id="bin">
</g>
<g id="full_bin">
</g>
<g id="bookmark">
</g>
<g id="edit">
</g>
<g id="pen">
</g>
<g id="search">
</g>
<g id="plus">
</g>
<g id="multiple">
</g>
<g id="arrow_top">
</g>
<g id="arrow_bottom">
</g>
<g id="minus">
</g>
<g id="synchronize">
</g>
<g id="refresh_1_">
</g>
<g id="left_arrow">
</g>
<g id="scale">
</g>
<g id="right_arrow">
</g>
<g id="expand">
</g>
<g id="play">
</g>
<g id="back">
</g>
<g id="next">
</g>
<g id="upload">
</g>
<g id="download">
</g>
<g id="shared">
</g>
<g id="checked">
</g>
<g id="file">
</g>
<g id="zip_file">
</g>
<g id="document_file">
</g>
<g id="image_file">
</g>
<g id="exel_file">
</g>
<g id="pdf_file">
</g>
<g id="folder">
</g>
<g id="clipboard">
</g>
<g id="adress">
</g>
<g id="news">
</g>
<g id="box">
</g>
<g id="wooden_box">
</g>
<g id="calendar">
</g>
<g id="clock">
</g>
<g id="hourglass">
</g>
<g id="envelope">
</g>
<g id="mail_plane">
</g>
<g id="note">
</g>
<g id="malbox">
</g>
<g id="key">
</g>
<g id="lock_close">
</g>
<g id="lock_open">
</g>
<g id="toolbox">
</g>
<g id="suitcase">
</g>
<g id="Idea">
</g>
<g id="dashboard">
</g>
<g id="home">
</g>
<g id="chat">
</g>
<g id="phone">
</g>
<g id="iphone">
</g>
<g id="monitor">
</g>
<g id="laptop">
</g>
<g id="window">
</g>
<g id="html_window">
</g>
<g id="router">
</g>
<g id="safe">
</g>
<g id="user_male">
	<g>
		<path d="M72.801,76.181c-0.957-0.677-2.061-1.175-3.23-1.499L59.56,71.197c-0.781-0.21-1.215-0.849-1.354-1.563    c-0.168-0.862-0.255-2.24-0.3-3.606c3.307-1.838,5.899-4.531,7.925-7.87c0.337-0.555,0.6-1.553,0.607-2.202    c0.012-1.289,0.013-2.578,0.016-3.866c0.784-0.111,1.326-0.563,1.636-1.552c0.511-1.632,1.273-5.036,1.282-5.066    c0.685-2.114-0.331-3.206-2.317-3.166C67.394,42.092,68,41.783,68,41.783c0.839-0.568,0.71-1.097,0.458-1.587    c-0.14-0.203-0.281-0.406-0.421-0.608c0.072-0.072,0.141-0.15,0.206-0.236c0.253-0.289,0.427-0.626,0.522-1.01    C68.913,37.984,69,37.2,69,37.2v-0.33c-0.013-0.55-0.147-1.06-0.399-1.53c-0.152-0.211-0.304-0.422-0.456-0.633    c-0.106-0.111-0.218-0.207-0.334-0.295c0.071-0.057,0.142-0.115,0.213-0.172c0.435-0.426,0.641-1.08,0.689-1.713    c0.024-0.339-0.026-0.659-0.15-0.96c-0.078-0.329-0.226-0.615-0.443-0.861c-0.193-0.252-0.425-0.433-0.695-0.543    c-0.248-0.158-0.518-0.239-0.808-0.242h-0.009c-0.038-0.119-0.075-0.238-0.114-0.353c0.183-0.524,0.27-1.08,0.219-1.599    c-0.178-1.826-1.476-2.851-2.949-2.992c0.011-0.097,0.025-0.192,0.029-0.292c0.086-1.917-1.319-3.869-3.067-3.869    c-0.465,0-0.915,0.103-1.328,0.288c-0.371-1.393-1.564-2.191-2.854-2.191c-0.398,0-0.768,0.134-1.096,0.356    c-0.005-0.013-0.009-0.026-0.014-0.038c-0.112-0.184-0.225-0.368-0.337-0.552c-0.381-0.521-0.972-0.777-1.548-0.845    c-0.316-0.034-0.615,0.022-0.897,0.169c-0.294,0.087-0.551,0.254-0.772,0.501c-0.156,0.15-0.28,0.323-0.379,0.516    c-0.099-0.193-0.223-0.365-0.379-0.516c-0.221-0.247-0.479-0.414-0.772-0.501c-0.282-0.147-0.581-0.203-0.897-0.169    c-0.576,0.069-1.167,0.324-1.548,0.845c-0.112,0.184-0.225,0.368-0.337,0.552c-0.006,0.012-0.009,0.025-0.014,0.038    c-0.328-0.222-0.698-0.356-1.096-0.356c-1.289,0-2.483,0.798-2.854,2.191c-0.413-0.186-0.863-0.288-1.328-0.288    c-1.748,0-3.152,1.952-3.067,3.869c0.004,0.1,0.018,0.195,0.029,0.292c-1.473,0.141-2.771,1.166-2.949,2.992    c-0.052,0.534,0.042,1.105,0.235,1.641c-0.045,0.102-0.087,0.207-0.13,0.311h-0.008c-0.29,0.003-0.56,0.084-0.808,0.242    c-0.27,0.11-0.502,0.291-0.695,0.543c-0.217,0.245-0.365,0.532-0.443,0.861c-0.124,0.301-0.175,0.621-0.15,0.96    c0.049,0.633,0.254,1.287,0.689,1.713c0.071,0.057,0.142,0.115,0.213,0.172c-0.116,0.089-0.229,0.185-0.334,0.295    c-0.152,0.211-0.304,0.422-0.456,0.633c-0.253,0.47-0.386,0.979-0.399,1.53v0.33c0,0,0.037,0.784,0.186,1.142    c0.096,0.384,0.27,0.721,0.522,1.01c0.065,0.085,0.134,0.163,0.206,0.236c-0.14,0.203-0.281,0.406-0.421,0.608    c-0.253,0.49-0.381,1.019,0.507,1.587v0.226c-0.899,0.158,0.413,0.027,0.942,0.291c-1.985-0.04-2.996,1.058-2.311,3.172    c0.01,0.03,0.771,3.434,1.282,5.066c0.344,1.098,0.974,1.535,1.904,1.577c0.009,1.089,0.012,2.178-0.034,3.265    c-0.058,1.367,0.349,2.56,1.107,3.672c1.937,2.839,4.383,5.161,7.346,6.909c-0.045,1.366-0.132,2.762-0.297,3.674    c-0.13,0.716-0.573,1.353-1.354,1.563L33.542,74.69c-1.005,0.279-1.971,0.677-2.819,1.231c-4.433,2.9-4.56,7.645-4.744,8.528    c-0.016,0.076,0.049,0.144,0.136,0.472h25.457h25.457c0.086-0.328,0.151-0.396,0.136-0.472    C76.987,83.593,76.921,79.095,72.801,76.181z" style="fill:#EAD6C7;"/>
		<path d="M77.029,85.921H26.115c-0.454,0-0.852-0.306-0.967-0.745c-0.029-0.11-0.055-0.179-0.073-0.227    c-0.05-0.133-0.142-0.382-0.075-0.703c0.017-0.084,0.033-0.208,0.054-0.366c0.199-1.477,0.804-5.971,5.122-8.795    c0.877-0.575,1.92-1.032,3.1-1.358l9.98-3.474c0.494-0.136,0.646-0.507,0.699-0.797c0.115-0.639,0.204-1.65,0.259-2.947    c-2.828-1.765-5.232-4.082-7.151-6.896c-0.926-1.357-1.344-2.757-1.279-4.277c0.035-0.811,0.041-1.632,0.039-2.395    c-0.896-0.306-1.521-1.011-1.864-2.105c-0.209-0.668-0.599-2.075-1.266-4.98l-0.033-0.145c-0.52-1.595-0.125-2.627,0.3-3.2    c0.158-0.213,0.378-0.44,0.68-0.641c-0.367-0.522-0.505-1.223-0.035-2.134c0.019-0.035,0.039-0.07,0.062-0.104    c-0.187-0.285-0.336-0.621-0.435-0.986c-0.175-0.483-0.221-1.187-0.231-1.399L33,36.87c0.018-0.731,0.192-1.396,0.519-2.003    c0.021-0.039,0.043-0.075,0.069-0.11l0.259-0.36c-0.32-0.514-0.505-1.122-0.557-1.793c-0.034-0.471,0.031-0.921,0.194-1.345    c0.121-0.457,0.338-0.866,0.647-1.215c0.241-0.318,0.583-0.592,0.983-0.771c0.08-0.047,0.162-0.09,0.245-0.128    c-0.084-0.436-0.107-0.866-0.068-1.272c0.179-1.832,1.292-3.209,2.924-3.709c0.084-1.157,0.578-2.295,1.375-3.128    c0.948-0.99,2.234-1.373,3.438-1.151c0.688-1.21,1.967-1.972,3.428-1.972c0.239,0,0.477,0.031,0.711,0.094    c0.546-0.67,1.295-1.062,2.167-1.166c0.49-0.054,0.958,0.025,1.392,0.232c0.279,0.095,0.537,0.233,0.771,0.417    c0.226-0.177,0.489-0.32,0.777-0.417c0.434-0.208,0.896-0.288,1.381-0.233c0.907,0.107,1.675,0.52,2.184,1.165    c0.232-0.061,0.468-0.092,0.705-0.092c1.461,0,2.74,0.762,3.428,1.972c1.204-0.222,2.49,0.161,3.438,1.151    c0.796,0.833,1.29,1.971,1.375,3.128c1.632,0.5,2.746,1.876,2.924,3.709c0.04,0.406,0.016,0.837-0.067,1.273    c0.083,0.037,0.165,0.08,0.245,0.127c0.4,0.18,0.746,0.457,1.028,0.825c0.267,0.298,0.482,0.704,0.603,1.161    c0.163,0.424,0.228,0.874,0.194,1.34c-0.053,0.688-0.244,1.308-0.551,1.807l0.253,0.352c0.025,0.035,0.048,0.071,0.069,0.11    c0.327,0.606,0.501,1.271,0.519,1.979l0,0.354c0,0.037-0.002,0.073-0.006,0.109c-0.023,0.205-0.107,0.882-0.276,1.339    c-0.095,0.354-0.241,0.683-0.436,0.981c0.023,0.034,0.044,0.07,0.063,0.106c0.465,0.902,0.338,1.601-0.01,2.124    c0.315,0.203,0.543,0.438,0.706,0.656c0.425,0.572,0.818,1.603,0.28,3.263l-0.008,0.053c-0.528,2.305-0.967,4.035-1.271,5.004    c-0.306,0.978-0.84,1.646-1.591,1.995c-0.002,1.045-0.004,2.09-0.014,3.134c-0.008,0.854-0.332,2.02-0.752,2.712    c-2.075,3.421-4.683,6.082-7.758,7.916c0.069,1.592,0.177,2.424,0.259,2.851c0.058,0.297,0.215,0.676,0.634,0.788l10.08,3.506    c1.264,0.349,2.455,0.902,3.479,1.627l0,0c3.986,2.819,4.513,6.948,4.712,8.503c0.021,0.164,0.036,0.293,0.053,0.378    c0.067,0.322-0.025,0.571-0.075,0.704c-0.018,0.048-0.043,0.116-0.073,0.227C77.881,85.616,77.483,85.921,77.029,85.921z     M27.067,83.921h49.014c-0.201-1.533-0.732-4.713-3.857-6.924l0,0c-0.835-0.591-1.817-1.046-2.919-1.352l-10.073-3.504    c-1.002-0.268-1.778-1.142-2.007-2.316c-0.155-0.798-0.262-2.064-0.318-3.765c-0.012-0.375,0.186-0.726,0.514-0.907    c3.001-1.668,5.543-4.196,7.556-7.515c0.233-0.384,0.457-1.206,0.462-1.693c0.01-1.063,0.012-2.127,0.014-3.191l0.001-0.667    c0.001-0.497,0.367-0.918,0.859-0.988c0.305-0.043,0.597-0.142,0.822-0.86c0.201-0.642,0.577-2.005,1.23-4.854    c0.029-0.129,0.049-0.202,0.05-0.207c0.219-0.678,0.225-1.193,0.021-1.469c-0.2-0.271-0.695-0.426-1.362-0.403    c-0.475-0.019-0.849-0.283-0.978-0.713c-0.129-0.431,0.045-0.895,0.425-1.134c0.299-0.188,0.79-0.445,0.961-0.535    c0.083-0.06,0.131-0.105,0.156-0.133c-0.01-0.013-0.023-0.042-0.044-0.084l-0.382-0.553c-0.273-0.396-0.226-0.931,0.114-1.272    c0.041-0.041,0.08-0.084,0.117-0.133c0.193-0.226,0.293-0.419,0.35-0.648c0.012-0.049,0.028-0.096,0.047-0.143    c0.046-0.111,0.119-0.489,0.159-0.815V36.87c-0.009-0.351-0.092-0.686-0.252-1.003l-0.369-0.512    c-0.056-0.055-0.116-0.103-0.176-0.149c-0.243-0.186-0.388-0.473-0.393-0.779c-0.004-0.306,0.131-0.597,0.369-0.79l0.213-0.172    c0.141-0.145,0.288-0.546,0.323-1.015c0.013-0.179-0.013-0.345-0.078-0.502c-0.02-0.049-0.036-0.099-0.048-0.15    c-0.04-0.167-0.112-0.308-0.219-0.43c-0.129-0.164-0.218-0.236-0.324-0.279c-0.056-0.022-0.109-0.051-0.16-0.083    c-0.091-0.058-0.178-0.084-0.281-0.085c-0.434-0.005-0.825-0.288-0.954-0.702l-0.107-0.334c-0.07-0.21-0.069-0.438,0.004-0.646    c0.145-0.414,0.203-0.819,0.168-1.173c-0.174-1.777-1.612-2.052-2.049-2.094c-0.268-0.025-0.513-0.157-0.682-0.366    c-0.169-0.209-0.247-0.478-0.216-0.744c0.013-0.111,0.021-0.165,0.023-0.221c0.036-0.799-0.282-1.65-0.831-2.224    c-0.262-0.274-0.69-0.602-1.237-0.602c-0.313,0-0.623,0.067-0.919,0.2c-0.267,0.119-0.574,0.117-0.839-0.01    c-0.265-0.126-0.461-0.362-0.536-0.646c-0.234-0.88-0.975-1.448-1.888-1.448c-0.175,0-0.354,0.062-0.534,0.184    c-0.248,0.169-0.557,0.217-0.845,0.132c-0.279-0.082-0.507-0.281-0.627-0.545l-0.294-0.482c-0.192-0.256-0.594-0.349-0.813-0.374    c-0.111-0.011-0.21,0.007-0.315,0.062c-0.058,0.03-0.118,0.055-0.18,0.073c-0.115,0.034-0.214,0.101-0.311,0.209    c-0.123,0.122-0.183,0.205-0.234,0.305c-0.342,0.668-1.438,0.668-1.779,0c-0.052-0.1-0.112-0.183-0.184-0.252    c-0.147-0.161-0.246-0.228-0.361-0.262c-0.062-0.019-0.122-0.043-0.179-0.072c-0.106-0.057-0.206-0.076-0.327-0.062    c-0.208,0.024-0.611,0.117-0.849,0.441l-0.279,0.465c-0.132,0.228-0.352,0.409-0.604,0.479c-0.283,0.078-0.593,0.048-0.836-0.117    c-0.18-0.122-0.359-0.184-0.534-0.184c-0.913,0-1.653,0.568-1.888,1.449c-0.076,0.283-0.271,0.519-0.537,0.646    c-0.265,0.125-0.572,0.128-0.839,0.009c-0.297-0.133-0.606-0.2-0.919-0.2c-0.547,0-0.975,0.327-1.237,0.602    c-0.548,0.573-0.866,1.425-0.831,2.223c0.002,0.052,0.009,0.101,0.015,0.15c0.032,0.267-0.042,0.57-0.21,0.78    c-0.169,0.209-0.412,0.376-0.679,0.401c-0.437,0.042-1.875,0.316-2.049,2.094c-0.035,0.362,0.027,0.779,0.181,1.205    c0.086,0.24,0.078,0.506-0.025,0.74l-0.125,0.297c-0.156,0.372-0.519,0.613-0.922,0.613c-0.101,0.001-0.188,0.027-0.279,0.086    c-0.051,0.032-0.104,0.06-0.159,0.082c-0.106,0.043-0.195,0.115-0.28,0.226c-0.152,0.176-0.224,0.316-0.264,0.483    c-0.012,0.052-0.028,0.102-0.048,0.15c-0.065,0.157-0.09,0.323-0.077,0.506c0.036,0.465,0.182,0.867,0.391,1.071h0.008    l0.137,0.111c0.237,0.193,0.373,0.484,0.369,0.79c-0.005,0.307-0.149,0.594-0.393,0.779c-0.06,0.047-0.119,0.095-0.176,0.149    l-0.369,0.513c-0.161,0.316-0.244,0.652-0.253,1.026l0,0.306c0.014,0.262,0.067,0.646,0.11,0.76    c0.014,0.038,0.036,0.101,0.046,0.14c0.058,0.23,0.157,0.425,0.305,0.594c0.083,0.104,0.122,0.147,0.163,0.188    c0.339,0.342,0.387,0.877,0.114,1.272l-0.381,0.552c-0.014,0.028-0.024,0.052-0.031,0.07c0.036,0.035,0.101,0.091,0.214,0.163    c0.115,0.073,0.211,0.168,0.286,0.277c0.198,0.042,0.388,0.101,0.562,0.187c0.419,0.208,0.637,0.68,0.526,1.134    s-0.525,0.749-0.991,0.762c-0.668-0.032-1.157,0.134-1.356,0.403c-0.205,0.276-0.199,0.795,0.016,1.46    c0.002,0.008,0.026,0.094,0.061,0.246c0.652,2.843,1.026,4.195,1.225,4.83c0.224,0.713,0.51,0.854,0.994,0.876    c0.531,0.023,0.951,0.458,0.956,0.99c0.009,0.997,0.014,2.159-0.035,3.316c-0.046,1.089,0.25,2.063,0.934,3.065    c1.867,2.737,4.231,4.961,7.028,6.611c0.315,0.186,0.503,0.528,0.491,0.895c-0.056,1.697-0.161,2.982-0.312,3.819    c-0.213,1.179-0.989,2.058-2.077,2.352l-9.975,3.472c-1.041,0.291-1.895,0.662-2.6,1.124    C27.897,78.965,27.28,82.395,27.067,83.921z" style="fill:#1F212B;"/>
	</g>
	<path d="M76.062,83.93c-0.172-0.787-0.237-5.359-4.201-8.035c-0.921-0.622-1.983-1.079-3.107-1.376l-8.711-2.278   c-1.178,0.526-2.49,0.921-5.405,0.985c-1.278,0.028-1.867,0.124-3.184,0.124c-3.509,0-6.233,0.057-9.371-0.758l-7.688,2.139   c-0.967,0.256-1.976,0.574-2.792,1.083c-4.265,2.663-4.482,7.297-4.659,8.108c-0.015,0.069-0.083-0.301,0,0h24.492   C51.437,83.921,76.078,84,76.062,83.93z" style="fill:#A3A3CD;"/>
	<g>
		<path d="M61.174,28.669c1.156,2.31,2.016,4.791,2.557,7.352c0.366,1.533,0.609,3.189,0.78,4.675l1.962,1.06    c0.28-0.155,0.555-0.297,0.555-0.297c0.815-0.552,0.69-1.067,0.445-1.543c-0.136-0.197-0.273-0.394-0.409-0.592    c0.07-0.07,0.137-0.146,0.2-0.229c0.245-0.281,0.415-0.609,0.508-0.983C67.916,37.765,68,37.002,68,37.002v-0.321    c-0.013-0.535-0.142-1.031-0.388-1.488c-0.148-0.205-0.295-0.41-0.443-0.616c-0.103-0.108-0.212-0.201-0.325-0.287    c0.069-0.056,0.138-0.112,0.207-0.168c0.423-0.414,0.622-1.051,0.669-1.666c0.024-0.33-0.025-0.641-0.146-0.934    c-0.076-0.32-0.219-0.599-0.43-0.837c-0.188-0.245-0.413-0.421-0.676-0.528c-0.241-0.154-0.503-0.233-0.785-0.236h-0.009    c-0.036-0.116-0.073-0.232-0.11-0.343c0.178-0.509,0.262-1.05,0.213-1.556c-0.173-1.776-1.434-2.773-2.864-2.911    c0.011-0.094,0.024-0.187,0.028-0.284c0.083-1.865-1.281-3.764-2.979-3.764c-0.452,0-0.889,0.1-1.29,0.28    c-0.36-1.356-1.52-2.132-2.772-2.132c-0.386,0-0.746,0.13-1.065,0.346c-0.005-0.012-0.009-0.025-0.014-0.037    c-0.109-0.179-0.218-0.358-0.328-0.537c-0.37-0.507-0.944-0.756-1.504-0.822c-0.307-0.033-0.597,0.021-0.871,0.164    c-0.285,0.084-0.535,0.247-0.75,0.487c-0.151,0.146-0.272,0.315-0.368,0.502c-0.096-0.187-0.217-0.356-0.368-0.502    c-0.215-0.24-0.465-0.403-0.75-0.487c-0.274-0.143-0.564-0.198-0.871-0.164c-0.559,0.067-1.133,0.315-1.504,0.822    c-0.109,0.179-0.218,0.358-0.328,0.537c-0.005,0.012-0.009,0.025-0.014,0.037c-0.319-0.216-0.678-0.346-1.065-0.346    c-1.253,0-2.412,0.776-2.772,2.132c-0.401-0.18-0.838-0.28-1.29-0.28c-1.698,0-3.062,1.899-2.979,3.764    c0.004,0.097,0.017,0.19,0.028,0.284c-1.431,0.138-2.692,1.135-2.864,2.911c-0.051,0.519,0.041,1.075,0.229,1.597    c-0.044,0.1-0.085,0.202-0.127,0.303h-0.008c-0.282,0.003-0.544,0.081-0.785,0.236c-0.263,0.107-0.488,0.283-0.676,0.528    c-0.211,0.238-0.354,0.518-0.43,0.837c-0.121,0.293-0.17,0.604-0.146,0.934c0.047,0.615,0.247,1.252,0.669,1.666    c0.069,0.056,0.138,0.112,0.207,0.168c-0.113,0.086-0.222,0.18-0.325,0.287c-0.147,0.205-0.295,0.41-0.443,0.616    c-0.246,0.457-0.375,0.953-0.388,1.488v0.321c0,0,0.036,0.763,0.181,1.111c0.093,0.374,0.262,0.702,0.507,0.983    c0.063,0.083,0.13,0.159,0.2,0.229c-0.136,0.197-0.273,0.395-0.409,0.592c-0.214,0.416-0.336,0.861,0.21,1.334    c1.641-0.567,4.213-0.809,4.213-0.809c0.095-1.457,0.167-2.921,0.47-4.368c0.552-2.633,1.441-5.182,2.642-7.548    C46.287,25.848,56.882,25.999,61.174,28.669z" style="fill:#565FA1;"/>
	</g>
	<g>
		<g>
			<path d="M48.35,37.705l0.641-1.231c-2.71-0.635-5.829-0.534-8.404,0.265l0.808,1.2     C43.51,37.24,46.113,37.151,48.35,37.705z" style="fill:#1F212B;"/>
			<path d="M61.917,37.705l0.641-1.231c-2.71-0.635-5.829-0.534-8.404,0.265l0.808,1.2     C57.077,37.24,59.68,37.151,61.917,37.705z" style="fill:#1F212B;"/>
		</g>
		<g>
			<path d="M44.45,41.852c-0.651,0-1.222,0.431-1.552,1.081c0.082-0.025,0.167-0.043,0.257-0.043     c0.534,0,0.966,0.483,0.966,1.079s-0.433,1.079-0.966,1.079c-0.175,0-0.336-0.056-0.478-0.146c0.228,0.977,0.935,1.69,1.773,1.69     c1.022,0,1.851-1.061,1.851-2.369C46.301,42.913,45.472,41.852,44.45,41.852z" style="fill:#1F212B;"/>
			<path d="M58.616,41.852c-0.556,0-1.053,0.315-1.392,0.811c0.106-0.045,0.22-0.072,0.34-0.072     c0.534,0,0.966,0.483,0.966,1.079c0,0.596-0.433,1.079-0.966,1.079c-0.331,0-0.623-0.186-0.797-0.47     c0.024,1.282,0.842,2.312,1.849,2.312c1.022,0,1.851-1.061,1.851-2.369C60.467,42.913,59.638,41.852,58.616,41.852z" style="fill:#1F212B;"/>
		</g>
		<g>
			<g>
				<path d="M49.71,41.758c-2.904-3.539-14.451-0.917-14.463-0.92c0.201,0.8,0.977,1.477,1.135,2.257      c0.813,0.084,0.861,1.91,0.942,2.578c0.394,3.227,2.553,5.605,7.098,5.493c4.555-0.237,5.62-3.534,5.808-5.61      C50.433,43.293,49.709,41.766,49.71,41.758z M49.191,45.722c-0.234,2.891-2.009,4.584-4.88,4.723      c-0.29,0.016-0.574,0.018-0.843,0.006c-4.524-0.008-5.297-3.967-5.387-6.471c-0.058-1.433,0.966-2.66,2.41-2.803      c0.83-0.081,1.765-0.081,2.845-0.081c3.38,0,4.851,0.806,5.243,1.454C48.809,42.935,49.322,44.152,49.191,45.722z" style="fill:#1F212B;"/>
				<path d="M52.915,45.557c0.188,2.076,1.252,5.373,5.808,5.61c4.545,0.113,6.704-2.266,7.098-5.493      c0.081-0.668,0.129-2.494,0.942-2.578c0.158-0.78,0.778-1.481,0.979-2.281c-0.012,0.002-11.404-2.596-14.307,0.943      C53.435,41.766,52.71,43.293,52.915,45.557z M54.565,42.55c0.391-0.647,1.862-1.453,5.243-1.454c1.08,0,2.015,0,2.845,0.081      c1.444,0.142,2.467,1.37,2.41,2.803c-0.089,2.504-0.863,6.462-5.387,6.471c-0.269,0.011-0.553,0.009-0.843-0.006      c-2.871-0.139-4.646-1.832-4.88-4.723C53.822,44.152,54.335,42.935,54.565,42.55z" style="fill:#1F212B;"/>
			</g>
			<path d="M53.536,44.565c-0.001-0.001-0.742-0.586-2.041-0.585c-1.216-0.001-1.887,0.585-1.887,0.585     c-0.198-0.549-0.396-1.096-0.596-1.643c1.707,0.001,3.413,0.001,5.12,0C53.932,43.469,53.734,44.016,53.536,44.565z" style="fill:#1F212B;"/>
		</g>
		<path d="M54.213,54.241c-0.148-0.128-0.37-0.109-0.496,0.035c-0.48,0.549-1.289,0.864-2.218,0.864    c-0.93,0-1.739-0.315-2.219-0.863c-0.123-0.142-0.358-0.157-0.497-0.036c-0.146,0.127-0.164,0.35-0.038,0.496    c0.663,0.777,1.692,1.241,2.753,1.241c1.06,0,2.089-0.464,2.752-1.241C54.376,54.59,54.36,54.368,54.213,54.241z" style="fill:#1F212B;"/>
		<path d="M59.488,57.842c-0.123-0.151-0.345-0.174-0.494-0.053c-1.639,1.306-4.371,2.055-7.496,2.055    c-3.125,0-5.858-0.749-7.498-2.058c-0.147-0.112-0.373-0.089-0.494,0.057c-0.12,0.15-0.097,0.372,0.052,0.495    c1.915,1.564,4.883,2.498,7.94,2.498s6.025-0.934,7.939-2.498l0-0.001C59.587,58.214,59.61,57.993,59.488,57.842z" style="fill:#1F212B;"/>
	</g>
	<path d="M65.317,41.497c-0.25,0-0.467-0.188-0.496-0.442c-0.216-1.863-0.475-3.416-0.793-4.747   c-0.544-2.569-1.394-5.028-2.53-7.322c-4.319-2.565-14.768-2.644-18.959-0.147c-1.181,2.354-2.06,4.879-2.612,7.51   c-0.275,1.312-0.362,2.676-0.447,3.995l-0.027,0.425c-0.018,0.275-0.263,0.489-0.532,0.467c-0.275-0.019-0.484-0.256-0.466-0.531   l0.027-0.424c0.087-1.354,0.176-2.755,0.466-4.137c0.58-2.764,1.51-5.416,2.763-7.884c0.041-0.081,0.104-0.149,0.181-0.197   c4.474-2.798,15.641-2.718,20.253,0.146c0.079,0.049,0.142,0.118,0.184,0.201c1.206,2.407,2.105,4.99,2.675,7.679   c0.324,1.357,0.59,2.948,0.811,4.852c0.032,0.274-0.165,0.522-0.439,0.555C65.356,41.496,65.336,41.497,65.317,41.497z" style="fill:#1F212B;"/>
	<path d="M51.498,73.909c-3.603,0-7.153-0.47-10.551-1.396c-0.267-0.072-0.424-0.348-0.351-0.614   c0.073-0.266,0.351-0.42,0.614-0.351c3.312,0.902,6.774,1.36,10.288,1.36c1.334,0,1.943,0,3.26-0.132   c0.274-0.029,0.52,0.173,0.547,0.447s-0.173,0.52-0.448,0.547C53.491,73.909,52.825,73.909,51.498,73.909z" style="fill:#1F212B;"/>
	<path d="M56.626,73.601c-0.25,0-0.466-0.188-0.496-0.441c-0.032-0.274,0.164-0.522,0.438-0.555   c0.738-0.087,1.467-0.191,2.187-0.312c0.27-0.05,0.53,0.138,0.576,0.41c0.045,0.272-0.138,0.53-0.411,0.576   c-0.735,0.123-1.48,0.23-2.235,0.318C56.665,73.6,56.646,73.601,56.626,73.601z" style="fill:#1F212B;"/>
	<path d="M51.753,68.462c-2.568,0-6.668-2.476-6.85-2.586c-0.236-0.144-0.311-0.45-0.167-0.687   c0.144-0.235,0.451-0.312,0.687-0.167c1.217,0.74,4.783,2.614,6.589,2.427c2.241-0.235,5.518-2.33,5.551-2.352   c0.232-0.148,0.542-0.082,0.691,0.15s0.083,0.542-0.15,0.691c-0.142,0.091-3.513,2.245-5.987,2.504   C51.999,68.456,51.877,68.462,51.753,68.462z" style="fill:#1F212B;"/>
</g>
<g id="user_female">
</g>
<g id="camera">
</g>
<g id="compass">
</g>
<g id="star">
</g>
<g id="picture">
</g>
<g id="preferences">
</g>
<g id="settings">
</g>
<g id="options">
</g>
<g id="printer">
</g>
<g id="save">
</g>
<g id="help">
</g>
<g id="marker">
</g>
<g id="map">
</g>
<g id="flag_1_">
</g>
<g id="shop">
</g>
<g id="cart">
</g>
<g id="wallet">
</g>
<g id="cards">
</g>
<g id="price">
</g>
<g id="shopping_bag">
</g>
<g id="dollars">
</g>
<g id="basket">
</g>
<g id="delivery">
</g>
<g id="bill">
</g>
<g id="cash_machine">
</g>
<g id="bill_machine">
</g>
<g id="calculator">
</g>
<g id="purse">
</g>
<g id="geometry">
</g>
<g id="setsquare">
</g>
<g id="coins">
</g>
<g id="cert">
</g>
<g id="goal">
</g>
<g id="lab">
</g>
<g id="cup">
</g>
<g id="money">
</g>
<g id="servers">
</g>
<g id="diamond">
</g>
<g id="mouse">
</g>
</svg>
